# xmcd
#
# Track frame offsets: 
#        150
#        26282
#        44562
#        67257
#        90720
#        122092
#        146182
#        150840
#        170650
#        190487
#        213827
#
# Disc length: 3039 seconds
#
# Revision: 2
# Processed by: cddbd v1.5.2PL0 Copyright (c) Steve Scherf et al.
# Submitted via: ExactAudioCopy v0.95b4
#
DISCID=9d0bdd0b
DTITLE=Alvin Davis - Letthevibesdecide
DYEAR=1994
DGENRE=Jazz
TTITLE0=Call Me Baby
TTITLE1=Rising
TTITLE2=Money Or Love
TTITLE3=Organ Grinder
TTITLE4=Mia
TTITLE5=Need You
TTITLE6=Guidance
TTITLE7=Let The Vibes Decide
TTITLE8=The Greeting
TTITLE9=Message From The Heart
TTITLE10=End Of The Day
EXTD=
EXTT0=
EXTT1=
EXTT2=
EXTT3=
EXTT4=
EXTT5=
EXTT6=
EXTT7=
EXTT8=
EXTT9=
EXTT10=
PLAYORDER=
